<mxfile host="app.diagrams.net" modified="2024-01-02T18:24:52.562Z" agent="Mozilla/5.0 (Windows NT 10.0; Win64; x64) AppleWebKit/537.36 (KHTML, like Gecko) Chrome/120.0.0.0 Safari/537.36 Edg/120.0.0.0" etag="pUugFN7ytuKNJ-ILiXFk" version="22.1.16" type="device">
  <diagram name="Page-1" id="gxQ7No4VCueYmPNxEtnN">
    <mxGraphModel dx="1025" dy="681" grid="1" gridSize="10" guides="1" tooltips="1" connect="1" arrows="1" fold="1" page="1" pageScale="1" pageWidth="827" pageHeight="1169" math="0" shadow="0">
      <root>
        <mxCell id="0" />
        <mxCell id="1" parent="0" />
        <mxCell id="ykNq-_4yc-D_tmC9pmQK-2" style="edgeStyle=orthogonalEdgeStyle;rounded=0;orthogonalLoop=1;jettySize=auto;html=1;exitX=0.5;exitY=1;exitDx=0;exitDy=0;entryX=0.5;entryY=0;entryDx=0;entryDy=0;" edge="1" parent="1" source="ykNq-_4yc-D_tmC9pmQK-3" target="ykNq-_4yc-D_tmC9pmQK-11">
          <mxGeometry relative="1" as="geometry" />
        </mxCell>
        <mxCell id="ykNq-_4yc-D_tmC9pmQK-3" value="Bắt đầu" style="ellipse;whiteSpace=wrap;html=1;" vertex="1" parent="1">
          <mxGeometry x="360" y="90" width="120" height="80" as="geometry" />
        </mxCell>
        <mxCell id="ykNq-_4yc-D_tmC9pmQK-4" style="edgeStyle=orthogonalEdgeStyle;rounded=0;orthogonalLoop=1;jettySize=auto;html=1;exitX=0.5;exitY=1;exitDx=0;exitDy=0;entryX=0.5;entryY=0;entryDx=0;entryDy=0;" edge="1" parent="1" source="ykNq-_4yc-D_tmC9pmQK-5" target="ykNq-_4yc-D_tmC9pmQK-7">
          <mxGeometry relative="1" as="geometry" />
        </mxCell>
        <mxCell id="ykNq-_4yc-D_tmC9pmQK-5" value="Lấy UID thẻ từ" style="rounded=0;whiteSpace=wrap;html=1;" vertex="1" parent="1">
          <mxGeometry x="360" y="290" width="120" height="60" as="geometry" />
        </mxCell>
        <mxCell id="ykNq-_4yc-D_tmC9pmQK-30" style="edgeStyle=orthogonalEdgeStyle;rounded=0;orthogonalLoop=1;jettySize=auto;html=1;exitX=0.5;exitY=1;exitDx=0;exitDy=0;entryX=0.5;entryY=0;entryDx=0;entryDy=0;" edge="1" parent="1" source="ykNq-_4yc-D_tmC9pmQK-7">
          <mxGeometry relative="1" as="geometry">
            <mxPoint x="420" y="480" as="targetPoint" />
          </mxGeometry>
        </mxCell>
        <mxCell id="ykNq-_4yc-D_tmC9pmQK-36" style="edgeStyle=orthogonalEdgeStyle;rounded=0;orthogonalLoop=1;jettySize=auto;html=1;exitX=1;exitY=0.5;exitDx=0;exitDy=0;entryX=0;entryY=0.5;entryDx=0;entryDy=0;" edge="1" parent="1" source="ykNq-_4yc-D_tmC9pmQK-7" target="ykNq-_4yc-D_tmC9pmQK-35">
          <mxGeometry relative="1" as="geometry" />
        </mxCell>
        <mxCell id="ykNq-_4yc-D_tmC9pmQK-7" value="So sánh UID của thẻ" style="rhombus;whiteSpace=wrap;html=1;" vertex="1" parent="1">
          <mxGeometry x="355" y="370" width="130" height="80" as="geometry" />
        </mxCell>
        <mxCell id="ykNq-_4yc-D_tmC9pmQK-8" style="edgeStyle=orthogonalEdgeStyle;rounded=0;orthogonalLoop=1;jettySize=auto;html=1;exitX=0.5;exitY=1;exitDx=0;exitDy=0;entryX=0.5;entryY=0;entryDx=0;entryDy=0;" edge="1" parent="1" source="ykNq-_4yc-D_tmC9pmQK-9">
          <mxGeometry relative="1" as="geometry">
            <mxPoint x="630" y="310" as="targetPoint" />
          </mxGeometry>
        </mxCell>
        <mxCell id="ykNq-_4yc-D_tmC9pmQK-9" value="Cho phép mở cửa" style="rounded=0;whiteSpace=wrap;html=1;" vertex="1" parent="1">
          <mxGeometry x="570" y="210" width="120" height="60" as="geometry" />
        </mxCell>
        <mxCell id="ykNq-_4yc-D_tmC9pmQK-10" style="edgeStyle=orthogonalEdgeStyle;rounded=0;orthogonalLoop=1;jettySize=auto;html=1;exitX=0.5;exitY=1;exitDx=0;exitDy=0;entryX=0.5;entryY=0;entryDx=0;entryDy=0;" edge="1" parent="1" source="ykNq-_4yc-D_tmC9pmQK-11" target="ykNq-_4yc-D_tmC9pmQK-5">
          <mxGeometry relative="1" as="geometry" />
        </mxCell>
        <mxCell id="ykNq-_4yc-D_tmC9pmQK-39" style="edgeStyle=orthogonalEdgeStyle;rounded=0;orthogonalLoop=1;jettySize=auto;html=1;exitX=1;exitY=0.5;exitDx=0;exitDy=0;entryX=0.5;entryY=0;entryDx=0;entryDy=0;" edge="1" parent="1" source="ykNq-_4yc-D_tmC9pmQK-11" target="ykNq-_4yc-D_tmC9pmQK-14">
          <mxGeometry relative="1" as="geometry">
            <Array as="points">
              <mxPoint x="550" y="230" />
              <mxPoint x="550" y="450" />
              <mxPoint x="630" y="450" />
            </Array>
          </mxGeometry>
        </mxCell>
        <mxCell id="ykNq-_4yc-D_tmC9pmQK-11" value="Có thẻ từ trên&lt;br&gt;cảm biến" style="rhombus;whiteSpace=wrap;html=1;" vertex="1" parent="1">
          <mxGeometry x="355" y="190" width="130" height="80" as="geometry" />
        </mxCell>
        <mxCell id="ykNq-_4yc-D_tmC9pmQK-26" style="edgeStyle=orthogonalEdgeStyle;rounded=0;orthogonalLoop=1;jettySize=auto;html=1;exitX=0.5;exitY=1;exitDx=0;exitDy=0;entryX=0.5;entryY=0;entryDx=0;entryDy=0;" edge="1" parent="1" source="ykNq-_4yc-D_tmC9pmQK-13" target="ykNq-_4yc-D_tmC9pmQK-14">
          <mxGeometry relative="1" as="geometry" />
        </mxCell>
        <mxCell id="ykNq-_4yc-D_tmC9pmQK-13" value="Lưu lịch sử" style="rounded=0;whiteSpace=wrap;html=1;" vertex="1" parent="1">
          <mxGeometry x="570" y="310" width="120" height="60" as="geometry" />
        </mxCell>
        <mxCell id="ykNq-_4yc-D_tmC9pmQK-14" value="Kết thúc" style="ellipse;whiteSpace=wrap;html=1;" vertex="1" parent="1">
          <mxGeometry x="570" y="470" width="120" height="80" as="geometry" />
        </mxCell>
        <mxCell id="ykNq-_4yc-D_tmC9pmQK-15" value="T" style="text;html=1;align=center;verticalAlign=middle;resizable=0;points=[];autosize=1;strokeColor=none;fillColor=none;" vertex="1" parent="1">
          <mxGeometry x="420" y="260" width="30" height="30" as="geometry" />
        </mxCell>
        <mxCell id="ykNq-_4yc-D_tmC9pmQK-16" value="F" style="text;html=1;align=center;verticalAlign=middle;resizable=0;points=[];autosize=1;strokeColor=none;fillColor=none;" vertex="1" parent="1">
          <mxGeometry x="480" y="200" width="30" height="30" as="geometry" />
        </mxCell>
        <mxCell id="ykNq-_4yc-D_tmC9pmQK-17" value="T" style="text;html=1;align=center;verticalAlign=middle;resizable=0;points=[];autosize=1;strokeColor=none;fillColor=none;" vertex="1" parent="1">
          <mxGeometry x="470" y="380" width="30" height="30" as="geometry" />
        </mxCell>
        <mxCell id="ykNq-_4yc-D_tmC9pmQK-20" value="F" style="text;html=1;align=center;verticalAlign=middle;resizable=0;points=[];autosize=1;strokeColor=none;fillColor=none;" vertex="1" parent="1">
          <mxGeometry x="430" y="440" width="30" height="30" as="geometry" />
        </mxCell>
        <mxCell id="ykNq-_4yc-D_tmC9pmQK-32" style="edgeStyle=orthogonalEdgeStyle;rounded=0;orthogonalLoop=1;jettySize=auto;html=1;exitX=0.5;exitY=1;exitDx=0;exitDy=0;entryX=0.5;entryY=0;entryDx=0;entryDy=0;" edge="1" parent="1" source="ykNq-_4yc-D_tmC9pmQK-31" target="ykNq-_4yc-D_tmC9pmQK-9">
          <mxGeometry relative="1" as="geometry" />
        </mxCell>
        <mxCell id="ykNq-_4yc-D_tmC9pmQK-31" value="2" style="ellipse;whiteSpace=wrap;html=1;aspect=fixed;" vertex="1" parent="1">
          <mxGeometry x="610" y="140" width="40" height="40" as="geometry" />
        </mxCell>
        <mxCell id="ykNq-_4yc-D_tmC9pmQK-35" value="2" style="ellipse;whiteSpace=wrap;html=1;aspect=fixed;" vertex="1" parent="1">
          <mxGeometry x="500" y="390" width="40" height="40" as="geometry" />
        </mxCell>
        <mxCell id="ykNq-_4yc-D_tmC9pmQK-38" style="edgeStyle=orthogonalEdgeStyle;rounded=0;orthogonalLoop=1;jettySize=auto;html=1;exitX=1;exitY=0.5;exitDx=0;exitDy=0;entryX=0.5;entryY=0;entryDx=0;entryDy=0;" edge="1" parent="1" source="ykNq-_4yc-D_tmC9pmQK-37" target="ykNq-_4yc-D_tmC9pmQK-14">
          <mxGeometry relative="1" as="geometry" />
        </mxCell>
        <mxCell id="ykNq-_4yc-D_tmC9pmQK-37" value="Số lần xác thực sai tăng lên 1" style="rounded=0;whiteSpace=wrap;html=1;" vertex="1" parent="1">
          <mxGeometry x="360" y="480" width="120" height="60" as="geometry" />
        </mxCell>
      </root>
    </mxGraphModel>
  </diagram>
</mxfile>
